<?xml version="1.0" encoding="UTF-8" standalone="no"?>
<svg
   xmlns:dc="http://purl.org/dc/elements/1.1/"
   xmlns:cc="http://creativecommons.org/ns#"
   xmlns:rdf="http://www.w3.org/1999/02/22-rdf-syntax-ns#"
   xmlns:svg="http://www.w3.org/2000/svg"
   xmlns="http://www.w3.org/2000/svg"
   xmlns:sodipodi="http://sodipodi.sourceforge.net/DTD/sodipodi-0.dtd"
   xmlns:inkscape="http://www.inkscape.org/namespaces/inkscape"
   version="1.1"
   id="svg2"
   xml:space="preserve"
   width="385.39999"
   height="656"
   viewBox="0 0 385.39999 656"
   sodipodi:docname="right-arrow.eps"><metadata
     id="metadata8"><rdf:RDF><cc:Work
         rdf:about=""><dc:format>image/svg+xml</dc:format><dc:type
           rdf:resource="http://purl.org/dc/dcmitype/StillImage" /></cc:Work></rdf:RDF></metadata><defs
     id="defs6" /><sodipodi:namedview
     pagecolor="#ffffff"
     bordercolor="#666666"
     borderopacity="1"
     objecttolerance="10"
     gridtolerance="10"
     guidetolerance="10"
     inkscape:pageopacity="0"
     inkscape:pageshadow="2"
     inkscape:window-width="640"
     inkscape:window-height="480"
     id="namedview4" /><g
     id="g10"
     inkscape:groupmode="layer"
     inkscape:label="ink_ext_XXXXXX"
     transform="matrix(1.3333333,0,0,-1.3333333,0,656)"><g
       id="g12"
       transform="scale(0.1)"><path
         d="m 622.52,4841.44 c -50.641,50.68 -118.239,78.6 -190.321,78.6 -72.078,0 -139.679,-27.92 -190.32,-78.6 L 80.6406,4680.24 c -104.9219,-105.04 -104.9219,-275.76 0,-380.64 L 1919.2,2461.04 78.6016,620.441 C 27.9609,569.762 0,502.199 0,430.16 0,358.039 27.9609,290.48 78.6016,239.762 L 239.84,78.6016 C 290.52,27.9219 358.078,0 430.16,0 502.238,0 569.84,27.9219 620.48,78.6016 L 2812,2270.04 c 50.76,50.84 78.64,118.72 78.48,190.88 0.16,72.44 -27.72,140.28 -78.48,191.08 L 622.52,4841.44"
         style="fill:#100f0d;fill-opacity:1;fill-rule:nonzero;stroke:none"
         id="path14" /></g></g></svg>
